<svg width="31" height="30" viewBox="0 0 31 30" fill="none" xmlns="http://www.w3.org/2000/svg">
<path d="M15.5 0.5C11.4838 0.5 7.83801 2.14063 5.19478 4.77816L2.37496 1.95833V9.25H9.66663L7.25126 6.83464C9.36471 4.72119 12.2757 3.41667 15.5 3.41667C21.9428 3.41667 27.1666 8.64046 27.1666 15.0833H30.0833C30.0833 7.0568 23.5265 0.5 15.5 0.5ZM15.0841 5.75228V7.83154C14.5885 7.89421 11.8199 8.4183 11.8199 11.7565C11.8199 16.6271 16.8615 15.1859 16.8615 18.4386C16.8615 20.0622 15.8133 20.1021 15.5968 20.1021C15.4031 20.1021 14.1157 20.2046 14.1157 17.7152H11.3642C11.3642 21.9307 14.4233 22.2668 14.879 22.3351V24.272H16.3374V22.3351C16.833 22.2725 19.6186 21.811 19.6186 18.4159C19.6186 13.7446 14.5771 14.639 14.5771 11.7679C14.5771 10.1216 15.4772 10.076 15.6766 10.076C16.0297 10.076 16.8842 10.3893 16.8842 12.3945H19.6414C19.6414 8.56071 17.021 7.96257 16.5538 7.87712V5.75228H15.0841ZM0.916626 15.0833C0.916626 23.1099 7.47343 29.6667 15.5 29.6667C19.5161 29.6667 23.1619 28.026 25.8051 25.3885L28.625 28.2083V20.9167H21.3333L23.7487 23.332C21.6352 25.4455 18.7242 26.75 15.5 26.75C9.05709 26.75 3.83329 21.5262 3.83329 15.0833H0.916626Z" fill="#2ECC71"/>
</svg>
