<svg width="45" height="22" viewBox="0 0 45 22" fill="none" xmlns="http://www.w3.org/2000/svg">
<path d="M41.4526 0.00420824C40.5772 0.0463966 39.7124 0.412022 39.0549 1.07296L30.3151 9.80929H22.1518L21.8038 9.46124L26.8909 8.44522H26.8944C28.2549 8.19561 29.4256 7.16202 29.6858 5.73819C29.6858 5.73819 29.6858 5.73468 29.6858 5.73116C30.0479 3.67452 28.4307 1.79718 26.3706 1.79718L14.0448 1.70929C14.0448 1.70577 14.0413 1.70577 14.0378 1.70929C11.8651 1.70929 9.96666 2.73233 8.43033 3.97686C8.4233 3.9839 8.41627 3.99093 8.40923 3.99796L0.309234 11.0151C0.126422 11.1733 0.0174374 11.4019 -0.000140722 11.6409C-0.0142032 11.8835 0.0666562 12.1191 0.228375 12.3019L8.32837 21.3019C8.49009 21.4776 8.71509 21.5866 8.95767 21.5972C9.19673 21.6077 9.43228 21.5233 9.60806 21.3616L12.9374 18.2995C12.9479 18.2925 12.9585 18.2819 12.9655 18.2749C13.1659 18.071 13.3803 17.9972 13.5878 17.9972H30.1499C31.3592 17.9972 32.4948 17.5542 33.3069 16.7456C33.3104 16.7421 33.3104 16.7421 33.3139 16.7386L44.019 5.85069C44.0295 5.84015 44.0366 5.83312 44.0436 5.82608C45.3374 4.41632 45.3374 2.1839 43.8995 0.865536C43.896 0.862021 43.896 0.862021 43.896 0.862021C43.2104 0.236239 42.328 -0.0379784 41.4526 0.00420824ZM41.5264 1.81476C41.9553 1.79015 42.3772 1.91671 42.6796 2.19093C43.4003 2.84835 43.4038 3.85733 42.7182 4.60616L42.7147 4.60968L32.0342 15.473C31.5878 15.9194 30.9233 16.1972 30.1499 16.1972H13.5878C12.8987 16.1972 12.2131 16.4819 11.6928 17.0023L9.05962 19.421L2.18306 11.778L9.56588 5.37608C10.9124 4.28272 12.4346 3.50929 14.0378 3.50929L26.3635 3.59718C26.367 3.59718 26.367 3.59718 26.3706 3.59718C27.369 3.59718 28.0897 4.41632 27.9139 5.41827C27.812 5.97374 27.1862 6.56085 26.5674 6.67335C26.5639 6.67335 26.5569 6.67335 26.5534 6.67686L19.8034 8.02687C19.4764 8.09015 19.2163 8.32921 19.1178 8.64561C19.0229 8.96554 19.1073 9.31007 19.3428 9.54562L21.1428 11.3456C21.3116 11.5144 21.5401 11.6058 21.7792 11.6093H30.6878C30.9268 11.6058 31.1553 11.5144 31.3241 11.3456L40.3241 2.34561C40.6581 2.01163 41.094 1.83585 41.5264 1.81476Z" fill="#2ECC71"/>
</svg>